<svg width="59" height="20" viewBox="0 0 59 20" fill="none" xmlns="http://www.w3.org/2000/svg">
<g id="SVG">
<path id="Vector" d="M4.27505 14.2837C4.51851 14.9298 4.85557 15.4823 5.28631 15.941C5.71704 16.3999 6.22733 16.751 6.81718 16.9944C7.40709 17.2379 8.04847 17.3596 8.74137 17.3596C9.41556 17.3596 10.0475 17.2332 10.6375 16.9803C11.2273 16.7275 11.7423 16.3717 12.1823 15.9129C12.6224 15.4541 12.9642 14.9064 13.2077 14.2697C13.4511 13.633 13.5728 12.9214 13.5728 12.1349V0H16.5222V19.6629H13.6009V17.8371C12.9455 18.5299 12.173 19.0636 11.2835 19.4382C10.3939 19.8127 9.43427 20 8.4043 20C7.35556 20 6.37712 19.8174 5.46885 19.4522C4.56065 19.0871 3.77408 18.5675 3.10933 17.8933C2.44459 17.2191 1.92019 16.4093 1.53631 15.4635C1.15238 14.5178 0.960449 13.4645 0.960449 12.3034V0H3.90989V12.1349C3.90989 12.9214 4.03159 13.6376 4.27505 14.2837Z" fill="#989898"/>
<path id="Vector_2" d="M21.6101 0V7.16291C22.2655 6.50749 23.0239 5.98787 23.8853 5.60394C24.7467 5.22001 25.6831 5.02808 26.6943 5.02808C27.743 5.02808 28.726 5.22467 29.6437 5.61793C30.5613 6.01118 31.3571 6.54491 32.0313 7.2191C32.7055 7.89329 33.2393 8.68912 33.6326 9.60672C34.0258 10.5244 34.2223 11.4981 34.2223 12.5281C34.2223 13.558 34.0258 14.5271 33.6326 15.4353C33.2393 16.3436 32.7055 17.1348 32.0313 17.8089C31.3571 18.4831 30.5613 19.0168 29.6437 19.4101C28.726 19.8033 27.743 19.9999 26.6943 19.9999C25.6831 19.9999 24.7421 19.808 23.8713 19.4241C23.0005 19.0402 22.2373 18.5205 21.5819 17.8651V19.6629H18.7729V0H21.6101ZM21.9331 14.4663C22.1859 15.0656 22.537 15.5899 22.9865 16.0394C23.4359 16.4888 23.9602 16.8446 24.5595 17.1068C25.1588 17.369 25.8047 17.5001 26.4977 17.5001C27.1719 17.5001 27.8085 17.369 28.4077 17.1068C29.007 16.8446 29.5266 16.4889 29.9667 16.0394C30.4068 15.59 30.7579 15.0656 31.0201 14.4663C31.2823 13.8671 31.4133 13.221 31.4133 12.5281C31.4133 11.8352 31.2823 11.1845 31.0201 10.5758C30.7579 9.96721 30.4068 9.43821 29.9667 8.98877C29.5266 8.53939 29.007 8.18822 28.4077 7.93543C27.8084 7.68265 27.1719 7.55616 26.4977 7.55616C25.8236 7.55616 25.1869 7.68259 24.5877 7.93543C23.9884 8.18828 23.464 8.53939 23.0145 8.98877C22.5651 9.43821 22.2093 9.96721 21.9471 10.5758C21.6849 11.1845 21.5539 11.8352 21.5539 12.5281C21.5539 13.221 21.6803 13.8671 21.9331 14.4663Z" fill="#989898"/>
<path id="Vector_3" d="M35.819 9.63485C36.1935 8.73597 36.7085 7.9448 37.3639 7.26128C38.0193 6.57776 38.7965 6.03938 39.6954 5.64612C40.5943 5.25287 41.5681 5.05627 42.6167 5.05627C43.6467 5.05627 44.6018 5.24355 45.4819 5.61803C46.3621 5.99258 47.1205 6.51225 47.7572 7.17706C48.3939 7.84181 48.8902 8.62838 49.2459 9.53658C49.6018 10.4449 49.7796 11.4327 49.7796 12.5001V13.4271H38.1224C38.216 14.0076 38.4033 14.546 38.6842 15.0422C38.9651 15.5384 39.3162 15.9692 39.7375 16.3343C40.1589 16.6996 40.6364 16.9852 41.1701 17.1911C41.7039 17.3971 42.2703 17.5001 42.8696 17.5001C44.5737 17.5001 45.9502 16.7978 46.9988 15.3933L49.0494 16.9101C48.3378 17.8652 47.4577 18.6143 46.409 19.1573C45.3602 19.7004 44.1805 19.9719 42.8696 19.9719C41.8022 19.9719 40.805 19.7846 39.8781 19.4101C38.9511 19.0356 38.1459 18.5112 37.4624 17.8371C36.7788 17.1629 36.2405 16.3717 35.8472 15.4635C35.4539 14.5553 35.2573 13.5674 35.2573 12.5C35.2572 11.4888 35.4445 10.5337 35.819 9.63485ZM39.7656 8.52526C38.9697 9.19007 38.4407 10.0749 38.1786 11.1798H46.9146C46.6711 10.0749 46.1514 9.19007 45.3555 8.52526C44.5596 7.86051 43.628 7.52811 42.5606 7.52811C41.4932 7.52811 40.5615 7.86051 39.7656 8.52526Z" fill="#989898"/>
<path id="Vector_4" d="M55.0871 8.84824C54.4879 9.50366 54.1883 10.3932 54.1883 11.5168V19.6629H51.3511V5.33705H54.1601V7.10672C54.5159 6.52619 54.9794 6.06737 55.5506 5.7303C56.1217 5.39317 56.8006 5.22461 57.5871 5.22461H58.5702V7.86507H57.3905C56.4542 7.86513 55.6864 8.19281 55.0871 8.84824Z" fill="#989898"/>
</g>
</svg>
