<svg width="90" height="28" viewBox="0 0 90 28" fill="none" xmlns="http://www.w3.org/2000/svg">
<g id="SVG">
<path id="Vector" d="M46.9225 6.94744C46.9225 7.93823 46.1075 8.749 45.111 8.749C44.1145 8.749 43.2995 7.93823 43.2995 6.94744C43.2995 5.9574 44.069 5.14668 45.111 5.14668C46.1522 5.16908 46.9225 5.9798 46.9225 6.94744ZM39.4942 10.5498C39.4942 10.7075 39.4942 11.0003 39.4942 11.0003C39.4942 11.0003 38.6339 9.89748 36.7996 9.89748C33.7874 9.89748 31.4091 12.1937 31.4091 15.3455C31.4091 18.4979 33.7419 20.7942 36.7996 20.7942C38.6566 20.7942 39.4942 19.6689 39.4942 19.6689V20.1419C39.4942 20.3668 39.6531 20.5244 39.8801 20.5244H42.1214V10.1672C42.1214 10.1672 40.0609 10.1672 39.8801 10.1672C39.6531 10.1672 39.4942 10.3697 39.4942 10.5498ZM39.4942 17.1918C39.0871 17.8001 38.2487 18.3179 37.2522 18.3179C35.4861 18.3179 34.1271 17.2142 34.1271 15.3455C34.1271 13.4774 35.4861 12.3737 37.2522 12.3737C38.2261 12.3737 39.109 12.9139 39.4942 13.4998V17.1918ZM43.7967 10.1672H46.47V20.5244H43.7967V10.1672ZM83.5426 9.89748C81.7079 9.89748 80.8475 11.0003 80.8475 11.0003V5.19148H78.1758V20.5468C78.1758 20.5468 80.236 20.5468 80.4178 20.5468C80.6439 20.5468 80.8022 20.3444 80.8022 20.1643V19.6913C80.8022 19.6913 81.6631 20.8166 83.4973 20.8166C86.5091 20.8166 88.8867 18.4979 88.8867 15.3686C88.9103 12.2161 86.5315 9.89748 83.5426 9.89748ZM83.1119 18.2955C82.0927 18.2955 81.2782 17.7775 80.8699 17.1694V13.4774C81.2782 12.9364 82.1839 12.3513 83.1119 12.3513C84.879 12.3513 86.2372 13.4543 86.2372 15.323C86.2372 17.1918 84.879 18.2955 83.1119 18.2955ZM76.8165 14.3778V20.5468H74.1438V14.6932C74.1438 12.982 73.6006 12.2841 72.083 12.2841C71.2679 12.2841 70.4528 12.6891 69.932 13.2966V20.5244H67.2588V10.1672H69.3655C69.5925 10.1672 69.7508 10.3697 69.7508 10.5498V11.0003C70.52 10.1896 71.5621 9.89748 72.5814 9.89748C73.7371 9.89748 74.7099 10.2352 75.5031 10.8874C76.454 11.6535 76.8165 12.6443 76.8165 14.3778ZM60.8046 9.89748C58.9708 9.89748 58.11 11.0003 58.11 11.0003V5.19148H55.4372V20.5468C55.4372 20.5468 57.4985 20.5468 57.6792 20.5468C57.9063 20.5468 58.0652 20.3444 58.0652 20.1643V19.6913C58.0652 19.6913 58.9255 20.8166 60.7598 20.8166C63.772 20.8166 66.1495 18.4979 66.1495 15.3686C66.1953 12.2161 63.8398 9.89748 60.8046 9.89748ZM60.3749 18.2955C59.3557 18.2955 58.5407 17.7775 58.1328 17.1694V13.4774C58.5407 12.9364 59.4463 12.3513 60.3749 12.3513C62.1409 12.3513 63.4997 13.4543 63.4997 15.323C63.4997 17.1918 62.1409 18.2955 60.3749 18.2955ZM53.1509 9.89748C53.9655 9.89748 54.3737 10.032 54.3737 10.032V12.4866C54.3737 12.4866 52.1541 11.7431 50.7725 13.3197V20.5693H48.1006V10.1672C48.1006 10.1672 50.1618 10.1672 50.3426 10.1672C50.569 10.1672 50.7271 10.3697 50.7271 10.5498V11.0003C51.2484 10.4153 52.3348 9.89748 53.1509 9.89748ZM25.5214 19.6009C25.3852 19.2631 25.2497 18.9029 25.1143 18.6108C24.8873 18.1154 24.661 17.6425 24.4795 17.2142L24.4568 17.1918C22.5552 13.0492 20.494 8.86182 18.3193 4.74092L18.2292 4.58326C18.0023 4.17827 17.776 3.72769 17.5725 3.27787C17.3008 2.78246 17.0292 2.26463 16.5759 1.76922C15.6929 0.666333 14.4247 0.0581055 13.0657 0.0581055C11.6848 0.0581055 10.4385 0.666338 9.51004 1.70198C9.1029 2.1974 8.78586 2.71521 8.51349 3.20988C8.28725 3.66044 8.06101 4.08859 7.85672 4.51602L7.76661 4.67367C5.63739 8.81624 3.55351 13.0044 1.62923 17.1245L1.60653 17.1694C1.40296 17.6201 1.1994 18.0699 0.972421 18.5652C0.836951 18.8581 0.700781 19.1959 0.5646 19.5561C0.202157 20.5693 0.0893785 21.5376 0.224851 22.5285C0.519912 24.5997 1.92357 26.3333 3.82587 27.0984C4.55075 27.3913 5.29762 27.549 6.06793 27.549C6.29417 27.549 6.56653 27.5266 6.79282 27.5041C7.69784 27.3913 8.64968 27.0984 9.55545 26.5583C10.6881 25.9275 11.7748 25.0047 12.9975 23.6986C14.2204 25.0272 15.3305 25.9275 16.4398 26.5583C17.3462 27.076 18.2973 27.3913 19.2031 27.5041C19.43 27.5266 19.701 27.549 19.928 27.549C20.6975 27.549 21.4905 27.4137 22.17 27.0984C24.1177 26.3333 25.476 24.5542 25.771 22.5285C25.9973 21.5825 25.8838 20.6141 25.5214 19.6009ZM13.0203 21.0198C11.5259 19.151 10.552 17.3719 10.2122 15.8865C10.0761 15.2557 10.0533 14.6932 10.1222 14.1977C10.1669 13.7471 10.3484 13.3646 10.5747 13.0492C11.0953 12.3065 11.9783 11.8335 13.0203 11.8335C14.0615 11.8335 14.9679 12.2841 15.4666 13.0492C15.6929 13.3871 15.851 13.7695 15.9192 14.1977C16.0099 14.6932 15.9652 15.2781 15.829 15.8865C15.4893 17.3719 14.5148 19.1286 13.0203 21.0198ZM24.0723 22.3253C23.8688 23.7666 22.9169 25.0047 21.5579 25.5449C20.9011 25.8155 20.1769 25.9051 19.4521 25.8155C18.7506 25.7251 18.071 25.5225 17.3462 25.0951C16.3497 24.5542 15.3531 23.6986 14.175 22.4156C16.0099 20.1867 17.1192 18.1378 17.5278 16.3139C17.7313 15.4583 17.7533 14.6932 17.6625 13.972C17.5498 13.2742 17.3001 12.6443 16.9157 12.1033C16.0553 10.8651 14.6062 10.1448 12.9975 10.1448C11.3896 10.1448 9.93984 10.8875 9.07954 12.1033C8.69437 12.6443 8.44615 13.2966 8.33261 13.972C8.21914 14.6932 8.24256 15.4807 8.4688 16.3139C8.87593 18.1378 10.0314 20.2091 11.8202 22.438C10.6881 23.6986 9.66894 24.5542 8.64968 25.1176C7.92479 25.5225 7.24601 25.7475 6.54383 25.8379C5.79556 25.9275 5.07137 25.8155 4.43727 25.5674C3.07899 25.0272 2.10444 23.7666 1.92357 22.3477C1.83278 21.6497 1.90088 20.9743 2.17254 20.2091C2.26333 19.9385 2.3995 19.6689 2.53497 19.3311C2.73925 18.8805 2.94282 18.4307 3.16907 17.9577L3.19178 17.9121C5.09407 13.8151 7.15453 9.60452 9.28377 5.52921L9.37389 5.3716C9.60078 4.96658 9.82714 4.51602 10.0314 4.11102C10.2576 3.66044 10.5066 3.25546 10.8009 2.89529C11.3896 2.24223 12.1599 1.88205 13.0203 1.88205C13.8807 1.88205 14.6509 2.24223 15.2396 2.89529C15.534 3.25546 15.783 3.66044 16.0099 4.11102C16.2362 4.51602 16.4624 4.96658 16.6667 5.3716L16.7568 5.52921C18.8634 9.62701 20.9238 13.8375 22.8261 17.9353V17.9577C23.053 18.4076 23.2339 18.9029 23.4602 19.3311C23.5964 19.6689 23.7326 19.9385 23.8226 20.2091C24.095 20.907 24.1851 21.6049 24.0723 22.3253Z" fill="#989898"/>
</g>
</svg>
