<svg width="76" height="16" viewBox="0 0 76 16" fill="none" xmlns="http://www.w3.org/2000/svg">
<g id="SVG">
<path id="Vector" d="M27.5718 1.06403H30.3948L35.196 9.76566L39.9971 1.06403H42.7594V15.3624H40.4561V4.40381L36.246 11.9921H34.0853L29.8751 4.40381V15.3624H27.5718V1.06403Z" fill="#989898"/>
<path id="Vector_2" d="M50.1893 15.6176C49.1224 15.6176 48.1843 15.381 47.3756 14.9078C46.567 14.4346 45.9366 13.7793 45.4851 12.9418C45.033 12.1043 44.8071 11.1443 44.8071 10.0617C44.8071 8.96552 45.0279 7.99533 45.4694 7.15099C45.9117 6.30683 46.5245 5.64639 47.3094 5.16961C48.0949 4.69315 48.9966 4.45485 50.016 4.45473C51.0285 4.45473 51.8998 4.69471 52.6309 5.17469C53.3613 5.65479 53.9235 6.3272 54.3175 7.19184C54.7115 8.05661 54.9085 9.07111 54.9085 10.2353V10.8685H47.0904C47.2331 11.7401 47.5852 12.4261 48.1456 12.9264C48.7059 13.4269 49.4144 13.6771 50.2706 13.6771C50.9573 13.6771 51.5483 13.5749 52.0442 13.3707C52.5402 13.1664 53.0061 12.8566 53.4407 12.4413L54.6639 13.9425C53.4476 15.0594 51.956 15.6178 50.1893 15.6176ZM51.871 7.13557C51.3887 6.64206 50.7565 6.39525 49.9754 6.39512C49.2143 6.39512 48.5771 6.64708 48.0642 7.15099C47.5508 7.65484 47.2262 8.33232 47.0904 9.18334H52.6971C52.629 8.31183 52.3538 7.62927 51.871 7.13557Z" fill="#989898"/>
<path id="Vector_3" d="M57.7096 6.59955H55.5889V4.7101H57.7096V1.58493H59.9316V4.7101H63.1524V6.59955H59.9316V11.3895C59.9316 12.186 60.0673 12.7545 60.3394 13.095C60.6108 13.4355 61.0767 13.6057 61.7358 13.6056C62.0279 13.6056 62.2756 13.5937 62.4801 13.5699C62.6839 13.5461 62.9078 13.5138 63.1524 13.4729V15.3419C62.8735 15.4227 62.5889 15.4842 62.3012 15.5257C61.9723 15.5742 61.6402 15.5981 61.3074 15.5971C58.9084 15.5971 57.7089 14.2831 57.7096 11.6549V6.59955Z" fill="#989898"/>
<path id="Vector_4" d="M74.7188 15.3622H72.5375V13.8711C72.1503 14.4296 71.6575 14.8602 71.0596 15.1631C70.4618 15.466 69.782 15.6175 69.0208 15.6177C68.0834 15.6177 67.2523 15.3776 66.5287 14.8975C65.8051 14.4175 65.2359 13.7571 64.8213 12.9162C64.4068 12.0753 64.1997 11.1136 64.1997 10.0311C64.1997 8.94177 64.4099 7.97829 64.8314 7.14071C65.2529 6.30333 65.8357 5.64633 66.5799 5.16961C67.3236 4.69315 68.1785 4.45485 69.1435 4.45473C69.8701 4.45473 70.5224 4.59602 71.1003 4.87862C71.67 5.15476 72.1635 5.56682 72.5375 6.07856V4.71013H74.7188V15.3622ZM72.4968 8.43784C72.2591 7.83185 71.8832 7.3535 71.3705 7.00286C70.8576 6.65221 70.2642 6.47695 69.5918 6.47695C68.64 6.47695 67.8827 6.79689 67.3185 7.4369C66.7544 8.07698 66.4724 8.94169 66.4724 10.0311C66.4724 11.1274 66.7444 11.9955 67.2879 12.6354C67.8313 13.2754 68.5687 13.5955 69.4999 13.5955C70.1866 13.5955 70.7976 13.4184 71.3348 13.0643C71.8714 12.7105 72.2591 12.2339 72.4968 11.6345V8.43784Z" fill="#989898"/>
<path id="Vector_5" d="M2.66699 10.5059C2.66699 11.3704 2.85586 12.0342 3.10352 12.4357C3.42809 12.9617 3.91213 13.1845 4.40556 13.1845C5.04221 13.1845 5.62447 13.0262 6.74705 11.4712C7.64573 10.2248 8.70519 8.47539 9.41811 7.37855L10.6251 5.52043C11.4631 4.22994 12.4337 2.7954 13.5463 1.82304C14.455 1.0294 15.435 0.588455 16.4212 0.588455C18.0767 0.588455 19.6539 1.54978 20.8609 3.35283C22.1823 5.3275 22.8234 7.81479 22.8234 10.3815C22.8234 11.9074 22.5232 13.0286 22.0122 13.9143C21.5188 14.771 20.5569 15.6269 18.939 15.6269V13.1845C20.3243 13.1845 20.6702 11.909 20.6702 10.4493C20.6702 8.36908 20.1861 6.06056 19.1198 4.41103C18.3631 3.24105 17.3825 2.52609 16.3031 2.52609C15.1361 2.52609 14.1974 3.40797 13.1417 4.9803C12.5807 5.81568 12.0047 6.83372 11.3581 7.98247L10.6463 9.24624C9.21611 11.787 8.85338 12.3657 8.13853 13.3207C6.88524 14.9931 5.81457 15.6269 4.40556 15.6269C2.73451 15.6269 1.6776 14.9017 1.02282 13.8089C0.488105 12.9184 0.226074 11.75 0.226074 10.4185L2.66699 10.5059Z" fill="#989898"/>
<path id="Vector_6" d="M2.15332 3.52527C3.27215 1.79704 4.88691 0.588455 6.73933 0.588455C7.81188 0.588455 8.87817 0.906517 9.99196 1.81753C11.2102 2.81352 12.5079 4.45358 14.1277 7.15654L14.7087 8.12659C16.1102 10.4665 16.9082 11.6704 17.3747 12.2381C17.9752 12.9672 18.3954 13.1845 18.942 13.1845C20.3273 13.1845 20.6731 11.909 20.6731 10.4493L22.8263 10.3815C22.8263 11.9074 22.5261 13.0286 22.0152 13.9143C21.5217 14.771 20.5599 15.6269 18.942 15.6269C17.9358 15.6269 17.0446 15.408 16.0595 14.4765C15.3016 13.7617 14.416 12.4916 13.735 11.35L11.7081 7.95809C10.6912 6.25581 9.75873 4.98656 9.21842 4.41185C8.63803 3.79377 7.89131 3.04736 6.69994 3.04736C5.73558 3.04736 4.91693 3.72528 4.2315 4.76218L2.15332 3.52527Z" fill="#989898"/>
<path id="Vector_7" d="M6.69701 3.04736C5.73328 3.04736 4.91402 3.72528 4.22921 4.76218C3.25985 6.22748 2.66699 8.40999 2.66699 10.5059C2.66699 11.3704 2.85586 12.0342 3.10352 12.4357L1.02282 13.8088C0.488105 12.9184 0.226074 11.75 0.226074 10.4185C0.226074 7.99744 0.889007 5.47393 2.15042 3.52527C3.26925 1.79704 4.88465 0.588455 6.73644 0.588455L6.69701 3.04736Z" fill="#989898"/>
</g>
</svg>
