<svg width="97" height="24" viewBox="0 0 97 24" fill="none" xmlns="http://www.w3.org/2000/svg">
<g id="SVG">
<path id="Vector" d="M37.9038 8.7228H40.9137V18.1796H37.9038V8.7228Z" fill="#989898"/>
<path id="Vector_2" d="M41.5425 8.72273H44.4415V10.0156H44.4969C45.1986 8.99972 46.1034 8.44574 47.4145 8.44574C49.4825 8.44574 50.7012 9.92329 50.7012 12.0289V18.1795H47.6914V12.6385C47.6914 11.641 47.1929 10.9576 46.2142 10.9576C45.2171 10.9576 44.5523 11.7888 44.5523 12.9524V18.1795H41.5425V8.72273Z" fill="#989898"/>
<path id="Vector_3" d="M41.2145 6.19272C41.2145 5.19526 40.4061 4.38676 39.409 4.38676C38.4119 4.38676 37.6035 5.19526 37.6035 6.19272C37.6035 7.19005 38.4119 7.99857 39.409 7.99857C40.4061 7.99857 41.2145 7.19005 41.2145 6.19272Z" fill="#989898"/>
<path id="Vector_4" d="M71.8698 8.58621C71.7844 8.57852 71.6856 8.57506 71.5705 8.57506C70.4256 8.57506 69.6501 9.07369 68.9853 10.2004H68.9299V8.7228H66.0493V18.1795H69.0591V13.9314C69.0591 11.963 70.1489 11.0509 71.8698 11.21V8.58621Z" fill="#989898"/>
<path id="Vector_5" d="M86.6406 12.2136C85.4406 11.992 84.369 11.8997 84.369 11.2348C84.369 10.6436 84.9422 10.3667 85.6806 10.3667C86.5114 10.3667 87.0838 10.6252 87.1947 11.4749H89.9646C89.817 9.60939 88.3763 8.44574 85.6989 8.44574C83.4648 8.44574 81.6182 9.48007 81.6182 11.4749C81.6182 13.6912 83.3723 14.1345 85.0156 14.4116C86.2714 14.6333 87.4163 14.7256 87.4163 15.5752C87.4163 16.1848 86.8438 16.5172 85.9389 16.5172C85.0311 16.5172 84.4311 16.1331 84.2469 15.3536H81.3789C81.59 17.2976 83.2961 18.4751 85.9573 18.4751C88.4321 18.4751 90.2596 17.4038 90.2596 15.3352C90.2596 12.9155 88.3022 12.4907 86.6406 12.2136Z" fill="#989898"/>
<path id="Vector_6" d="M76.5392 10.5882C77.5175 10.5882 78.2192 11.3086 78.33 12.4353H74.6001C74.8034 11.3086 75.3942 10.5882 76.5392 10.5882ZM76.7051 16.2954C75.4677 16.2954 74.766 15.5013 74.5818 14.2268H81.3766C81.3957 12.306 80.8415 10.6621 79.715 9.62788C78.9025 8.88903 77.8317 8.44574 76.4834 8.44574C73.6027 8.44574 71.627 10.6067 71.627 13.4327C71.627 16.2954 73.5477 18.4566 76.6684 18.4566C77.8684 18.4566 78.8284 18.1426 79.6225 17.5885C80.4533 17.0159 81.0074 16.2032 81.2107 15.3536H78.275C78.0159 15.9447 77.4992 16.2954 76.7051 16.2954Z" fill="#989898"/>
<path id="Vector_7" d="M95.5607 15.9495C95.4209 15.955 95.2339 15.9631 95.0616 15.9631C94.4158 15.9631 94.0092 15.7784 94.0092 15.0395V10.6067H95.5607V8.72273H94.0092V5.73058H91.0734V8.72273H90.1494V10.6067H91.0734V15.686C91.0734 17.7178 92.3292 18.2903 94.0833 18.2903C94.7525 18.2903 95.2586 18.2401 95.5607 18.1812V15.9495Z" fill="#989898"/>
<path id="Vector_8" d="M56.0764 15.9538C55.9563 15.9584 55.8177 15.9631 55.6882 15.9631C55.042 15.9631 54.6357 15.7784 54.6357 15.0395V10.6067H56.0764V8.72273H54.6357V5.73058H51.6998V8.72273H50.7207V10.6067H51.6998V15.686C51.6998 17.7178 52.9553 18.2903 54.7096 18.2903C55.3031 18.2903 55.7679 18.2508 56.0764 18.2008V15.9538Z" fill="#989898"/>
<path id="Vector_9" d="M62.6321 12.4353C62.5214 11.3087 61.8196 10.5882 60.8409 10.5882C59.6961 10.5882 59.1052 11.3087 58.9021 12.4353H62.6321ZM55.9292 13.4327C55.9292 10.6067 57.905 8.44581 60.7856 8.44581C62.1335 8.44581 63.2045 8.88903 64.017 9.62788C65.1434 10.6622 65.6973 12.306 65.6788 14.2269H58.8837C59.0683 15.5013 59.77 16.2956 61.0072 16.2956C61.8012 16.2956 62.3182 15.9447 62.5766 15.3536H65.5127C65.3095 16.2032 64.7556 17.0159 63.9246 17.5885C63.1307 18.1426 62.1705 18.4566 60.9702 18.4566C57.8496 18.4566 55.9292 16.2956 55.9292 13.4327Z" fill="#989898"/>
<path id="Vector_10" d="M32.6767 11.1793C33.8586 11.1793 34.5233 10.4774 34.5233 9.42451C34.5233 8.37183 33.84 7.72538 32.6767 7.72538H30.3684V11.1793H32.6767ZM27.3213 4.9733H32.548C34.1544 4.9733 35.3362 5.41654 36.1487 6.19233C36.9982 6.98647 37.4782 8.11327 37.4782 9.44308C37.4782 11.9735 35.724 13.7651 33.0096 13.7651H30.3684V18.1795H27.3213V4.9733Z" fill="#989898"/>
<path id="Vector_11" d="M11.8257 0.606476C5.54967 0.606476 0.461914 5.69559 0.461914 11.9732C0.461914 16.7888 3.45721 20.9054 7.68442 22.5616C7.5851 21.6623 7.49531 20.2792 7.72381 19.2974C7.93035 18.4103 9.05637 13.6474 9.05637 13.6474C9.05637 13.6474 8.71642 12.9664 8.71642 11.9598C8.71642 10.3792 9.6323 9.1992 10.7727 9.1992C11.7422 9.1992 12.2105 9.92732 12.2105 10.8004C12.2105 11.7756 11.5897 13.2337 11.2694 14.585C11.0016 15.7163 11.8366 16.639 12.9521 16.639C14.9719 16.639 16.5244 14.5088 16.5244 11.4339C16.5244 8.71228 14.5694 6.80942 11.7777 6.80942C8.54432 6.80942 6.64643 9.23527 6.64643 11.7423C6.64643 12.7192 7.02268 13.7668 7.49214 14.3363C7.58503 14.4488 7.59865 14.5475 7.57098 14.6623C7.48473 15.0213 7.293 15.7934 7.25537 15.9515C7.20581 16.1595 7.09067 16.2037 6.87531 16.1034C5.45605 15.4426 4.56869 13.367 4.56869 11.6999C4.56869 8.11426 7.17321 4.82132 12.0772 4.82132C16.0193 4.82132 19.0827 7.63115 19.0827 11.3862C19.0827 15.3037 16.6134 18.4564 13.1859 18.4564C12.0344 18.4564 10.9519 17.858 10.5814 17.1512C10.5814 17.1512 10.0116 19.3214 9.87336 19.8533C9.61684 20.8406 8.9243 22.0782 8.46103 22.8332C9.52423 23.1625 10.6542 23.3401 11.8257 23.3401C18.1018 23.3401 23.1895 18.2509 23.1895 11.9732C23.1895 5.69559 18.1018 0.606476 11.8257 0.606476Z" fill="#989898"/>
</g>
</svg>
