<svg width="83" height="22" viewBox="0 0 83 22" fill="none" xmlns="http://www.w3.org/2000/svg">
<g id="SVG">
<path id="Vector" d="M6.23391 7.44022C4.29654 7.44022 3.3455 9.17219 3.3455 11.4848V17.2803H0.613281V5.0504H3.29762V8.22333H3.34424C3.91738 6.27251 5.0599 4.69617 6.82218 4.69617C8.06169 4.69617 8.58445 5.13516 8.58445 5.13516L7.35123 7.65403C7.35123 7.65403 6.95822 7.44022 6.23391 7.44022ZM39.2636 9.11906V17.2791H36.6019V10.1122C36.6019 8.05507 35.9658 6.9658 34.3408 6.9658C32.6579 6.9658 31.8442 8.34351 31.8442 10.9863V17.2778H29.2065V10.1122C29.2065 8.13477 28.5779 6.9658 26.9692 6.9658C25.1327 6.9658 24.426 8.59783 24.426 10.9863V17.2778H21.7416V5.0504H24.426V7.81975H24.4499C24.8682 5.9031 26.0094 4.72021 27.9355 4.72021C29.8451 4.72021 31.0897 5.7614 31.562 7.60722C32.0117 5.83098 33.2084 4.72021 35.0475 4.72021C37.6134 4.72021 39.2636 6.35221 39.2636 9.11906ZM13.9544 4.69617C11.4842 4.69617 9.86808 5.87273 9.13117 7.99687L11.4048 8.83568C11.8193 7.55408 12.6834 6.8241 14.0023 6.8241C15.4862 6.8241 16.3578 7.48703 16.3578 8.50416C16.3578 9.54408 15.6638 9.76171 14.0967 10.0185C12.3534 10.3032 8.20781 10.3968 8.20781 13.9442C8.20781 16.0228 9.92097 17.5865 12.4944 17.5865C14.4292 17.5865 15.7469 16.7844 16.3565 15.2916H16.3805V17.2791H19.0421V9.7579C19.0409 6.46734 17.4084 4.69617 13.9544 4.69617ZM16.4271 11.5227C16.4271 14.0872 15.1762 15.7344 13.1772 15.7344C11.7639 15.7344 10.9161 14.9298 10.9161 13.7696C10.9161 12.6816 11.7877 11.9263 13.4593 11.6151C15.17 11.2963 16.0316 10.9028 16.4271 9.95903V11.5227ZM48.7313 4.72021C46.6956 4.72021 45.3503 5.85502 44.7747 7.56041V5.0504H41.9479V21.9866H44.7507V14.7703H44.7747C45.3982 16.6174 46.6969 17.6333 48.7313 17.6333C51.9573 17.6333 54.2662 14.9373 54.2662 11.1281C54.265 7.34533 51.9573 4.72021 48.7313 4.72021ZM48.0359 15.3637C45.8013 15.3637 44.5618 13.719 44.5618 11.1647C44.5618 8.61043 45.9486 6.9658 48.0359 6.9658C50.122 6.9658 51.5101 8.69014 51.5101 11.1647C51.5101 13.6406 50.1232 15.3637 48.0359 15.3637Z" fill="#989898"/>
<path id="Vector_2" d="M82.0268 17.2237V17.3L71.0875 17.3038V17.2237C72.6649 16.32 73.7538 15.3995 74.7335 14.4376H79.2253L82.0268 17.2237ZM79.3163 2.77235L76.5434 0.0134277H76.4629C76.4629 0.0134277 76.5097 5.15505 71.8541 9.83121C67.2986 14.4079 61.9414 14.4182 61.9414 14.4182V14.4984L64.7662 17.3051C64.7662 17.3051 70.0454 17.3582 74.7088 12.7181C79.3553 8.09366 79.3163 2.77235 79.3163 2.77235Z" fill="#989898"/>
</g>
</svg>
