<svg width="120" height="26" viewBox="0 0 120 26" fill="none" xmlns="http://www.w3.org/2000/svg">
<g id="SVG">
<path id="Vector" d="M32.7354 5.3371H34.7332V10.8631C35.5621 9.65165 36.6461 9.07781 37.9851 9.07781C39.8129 9.07781 40.8544 10.0767 40.8544 12.0534V18.8334H38.8565V12.5847C38.8565 11.2245 38.3464 10.8206 37.3475 10.8206C36.7311 10.8206 36.136 11.182 35.5834 11.9046C35.0308 12.6272 34.7332 13.5836 34.7332 14.7739V18.8334H32.7354V5.3371Z" fill="#989898"/>
<path id="Vector_2" d="M50.9297 14.6047H44.0859C44.0859 16.1138 44.9573 17.2615 46.4663 17.2615C47.5503 17.2615 48.5279 16.6663 48.9956 15.6462L50.6958 16.3051C49.7182 18.1967 48.5917 19.0256 46.4663 19.0256C43.2994 19.0256 41.9604 16.3476 41.9604 14.0734C41.9604 11.7992 43.2782 9.12116 46.4663 9.12116C49.5481 9.12116 50.9084 11.6292 50.9084 13.7545V14.6047H50.9297ZM44.1496 12.9469H48.8255C48.6555 11.7354 47.8478 10.864 46.4875 10.864C45.2123 10.8215 44.3835 11.6929 44.1496 12.9469Z" fill="#989898"/>
<path id="Vector_3" d="M66.5519 9.07781C67.0195 9.07781 67.5083 9.20534 68.0185 9.46035C68.5285 9.71542 68.8898 9.9705 69.1449 10.2893V5.3371H71.1428V18.8334H69.1449V17.7282C68.7624 18.3445 67.6996 19.0034 66.5094 19.0034C63.6826 19.0034 62.1948 17.1756 62.1948 14.0513C62.2373 10.9907 63.7251 9.07781 66.5519 9.07781ZM64.3202 14.03C64.3202 15.0077 64.5541 15.7941 65.0004 16.3679C65.4467 16.9418 66.0631 17.2181 66.7858 17.2181C67.5084 17.2181 68.1035 16.9205 68.5711 16.3679C69.0174 15.7728 69.2512 15.0077 69.2512 14.03C69.2512 13.0523 69.0174 12.2659 68.5711 11.7133C68.1248 11.1182 67.5084 10.8419 66.7858 10.8419C66.0631 10.8419 65.4679 11.1394 65.0004 11.7133C64.5541 12.2659 64.3202 13.0736 64.3202 14.03Z" fill="#989898"/>
<path id="Vector_4" d="M78.7524 10.5877L77.4984 11.6929C77.052 11.0978 76.4781 10.8215 75.8193 10.8215C75.2879 10.8215 74.8629 11.1828 74.8629 11.7779C74.8629 11.9905 74.9691 12.203 75.1179 12.373C75.458 12.7131 75.7555 12.8406 76.5844 13.1594C77.2431 13.4145 77.5405 13.5208 78.0719 13.8608C78.8373 14.3071 79.199 14.9022 79.2838 15.9224C79.3052 16.7514 78.965 17.5378 78.3701 18.0904C77.7531 18.6855 76.967 18.9618 75.9468 18.9618C74.0977 18.9618 72.8225 17.7715 72.2061 16.39L73.8852 15.4761C74.3952 16.6451 75.0966 17.2189 76.0106 17.2189C76.882 17.2189 77.3073 16.8151 77.3073 15.965C77.3073 15.6249 77.1796 15.4124 76.8182 15.1998C76.6694 15.0935 76.4994 15.0085 76.3293 14.9235C76.0318 14.796 75.3304 14.5409 75.0329 14.4134C73.6513 13.8395 72.95 12.9681 72.95 11.7779C72.9287 11.034 73.2475 10.3326 73.8001 9.8438C74.3527 9.31247 75.0541 9.03613 75.9255 9.03613C77.0732 9.07865 78.1361 9.65249 78.7524 10.5877Z" fill="#989898"/>
<path id="Vector_5" d="M85.1499 18.9835C84.0236 18.9835 83.0456 18.452 82.557 17.7719V22.7241H80.5591V9.22783H82.557V10.3118C82.9393 9.69539 84.0022 9.05778 85.1919 9.05778C88.0187 9.05778 89.5067 10.8857 89.5067 14.01C89.5067 17.0918 87.9981 18.9835 85.1499 18.9835ZM87.381 14.0525C87.381 13.0748 87.1478 12.2884 86.7013 11.7358C86.2547 11.1407 85.6385 10.8644 84.9159 10.8644C84.1933 10.8644 83.5984 11.1619 83.1305 11.7358C82.684 12.3097 82.4507 13.0748 82.4507 14.0525C82.4507 15.0302 82.684 15.8166 83.1305 16.3905C83.577 16.9643 84.1933 17.2406 84.9159 17.2406C85.6385 17.2406 86.2333 16.9431 86.7013 16.3905C87.1685 15.7953 87.381 15.009 87.381 14.0525Z" fill="#989898"/>
<path id="Vector_6" d="M109.231 16.3479C108.444 18.1332 107.063 19.0046 105.065 19.0046C103.619 19.0046 102.472 18.5371 101.686 17.6019C100.899 16.6455 100.517 15.4764 100.517 14.0525C100.517 12.6285 100.899 11.4594 101.686 10.5243C102.472 9.56785 103.599 9.10029 105.065 9.10029C107.084 9.10029 108.444 9.97172 109.231 11.757L107.446 12.5222C106.957 11.4169 106.149 10.8643 105.065 10.8643C103.45 10.8643 102.642 12.1396 102.642 14.0738C102.642 16.0079 103.45 17.2831 105.065 17.2831C106.17 17.2831 106.957 16.7305 107.446 15.6252L109.231 16.3479Z" fill="#989898"/>
<path id="Vector_7" d="M118.859 14.6047H112.016C112.016 16.1138 112.887 17.2615 114.396 17.2615C115.501 17.2615 116.479 16.6238 116.925 15.6462L118.626 16.3051C117.648 18.1967 116.522 19.0256 114.396 19.0256C111.229 19.0256 109.89 16.3476 109.89 14.0734C109.89 11.7992 111.208 9.12116 114.396 9.12116C117.478 9.12116 118.838 11.6292 118.838 13.7545V14.6047H118.859ZM112.079 12.9469H116.755C116.585 11.7354 115.778 10.864 114.417 10.864C113.142 10.8215 112.313 11.6929 112.079 12.9469Z" fill="#989898"/>
<path id="Vector_8" d="M56.4128 9.10029C56.8803 9.10029 57.3692 9.22783 57.8793 9.48283C58.3894 9.7379 58.7508 9.99298 59.0058 10.3118V9.24908H61.0036V18.8771H59.3459L59.0058 17.7719C58.6232 18.3883 57.5605 19.0471 56.3703 19.0471C53.5435 19.0471 52.0557 17.2193 52.0557 14.0949C52.0557 11.0131 53.5647 9.10029 56.4128 9.10029ZM54.1598 14.0525C54.1598 15.0301 54.3936 15.8166 54.84 16.3904C55.2863 16.9642 55.9027 17.2406 56.6253 17.2406C57.348 17.2406 57.9431 16.943 58.4106 16.3904C58.857 15.7953 59.0908 15.0301 59.0908 14.0525C59.0908 13.0748 58.857 12.2884 58.4106 11.7358C57.9643 11.1407 57.348 10.8643 56.6253 10.8643C55.9027 10.8643 55.3076 11.1619 54.84 11.7358C54.3936 12.2884 54.1598 13.0748 54.1598 14.0525Z" fill="#989898"/>
<path id="Vector_9" d="M94.7992 9.10029C95.2671 9.10029 95.7557 9.22783 96.2657 9.48283C96.7757 9.7379 97.1374 9.99298 97.3928 10.3118V9.24908H99.39V18.8771H97.7323L97.3928 17.7719C97.0097 18.3883 95.9469 19.0471 94.7571 19.0471C91.9303 19.0471 90.4424 17.2193 90.4424 14.0949C90.4424 11.0131 91.9517 9.10029 94.7992 9.10029ZM92.5466 14.0525C92.5466 15.0301 92.7806 15.8166 93.2264 16.3904C93.6729 16.9642 94.2892 17.2406 95.0117 17.2406C95.7343 17.2406 96.3299 16.943 96.7971 16.3904C97.2437 15.7953 97.4776 15.0301 97.4776 14.0525C97.4776 13.0748 97.2437 12.2884 96.7971 11.7358C96.3514 11.1407 95.7343 10.8643 95.0117 10.8643C94.2892 10.8643 93.6943 11.1619 93.2264 11.7358C92.7806 12.2884 92.5466 13.0748 92.5466 14.0525Z" fill="#989898"/>
<path id="Vector_10" d="M26.5709 12.8196C26.8684 16.9003 24.9556 19.217 23.8079 20.8323C22.0226 22.7027 19.7696 25.2532 14.0097 25.402C9.12137 25.5932 6.7409 23.4465 4.74302 21.6187C2.10753 18.7494 1.4274 17.0491 1.32113 12.8408C1.29987 10.2478 2.32007 7.67611 4.0629 5.40191C6.50711 1.95876 10.4391 0.789786 14.031 0.534742C17.8143 0.407218 20.8323 2.29882 22.8939 4.33921C25.4869 7.08098 26.3158 9.44016 26.5709 12.8196Z" fill="#989898"/>
</g>
</svg>
