<svg width="47" height="47" viewBox="0 0 47 47" fill="none" xmlns="http://www.w3.org/2000/svg">
<g id="Frame 1">
<g clip-path="url(#clip0_213_101)">
<rect id="Fundo" width="47" height="47" rx="23.5" fill="black"/>
<g id="Group 2">
<path id="Vector 6" d="M34.4665 38.2854C31.8147 47.0602 22.0329 39.3812 17.8545 34.3472L17.7783 33.7613L20.1025 32.3293L23.9507 30.9948L31.8376 31.2877L34.4665 38.2854Z" fill="#43004A"/>
<g id="Vector 8" filter="url(#filter0_f_213_101)">
<path d="M4.13926 32.4416C0.748855 30.9554 -0.790465 28.1611 -1.08057 26.6075L1.68171 27.4875L8.45495 30.4534L18.8608 25.5971L28.3584 21.9141C29.645 22.3052 32.9901 23.5699 33.9965 26.0534C35.1153 28.8141 33.7784 41.8367 33.2865 39.2944C31.5222 30.1765 23.7643 32.033 18.6938 34.3797L18.3509 34.1194V33.3708L18.1604 32.9477L16.484 32.4416L10.6164 31.7759L4.13926 32.4416Z" fill="#2E0033"/>
</g>
<path id="Vector 5" d="M-1.11914 32.3415V26.0924L2.03927 27.0784L8.76082 30.0453L19.0872 25.1874L28.5124 21.5032C29.7891 21.8945 32.7406 23.2377 34.3328 25.4808C36.3229 28.2847 34.4482 41.2943 33.9601 38.7513C32.2093 29.6305 22.9549 31.9689 17.9232 34.3163L16.8784 33.6054C16.6512 33.4508 16.3939 33.3458 16.1234 33.2975L13.9804 32.9144L-1.11914 32.3415Z" fill="#5F1A65"/>
<g id="Vector 7" filter="url(#filter1_f_213_101)">
<path d="M-0.546875 26.7517V23.428L1.66534 24.0411C4.94551 24.2239 11.6127 24.5638 12.0398 24.4606C12.5738 24.3315 21.8422 14.7476 22.1092 14.4571C22.3228 14.2248 26.5276 14.5002 28.9051 14.4571C32.048 16.8838 34.0354 23.3727 34.6203 26.4382C30.7146 23.7534 25.5801 25.6653 23.2153 27.0421C8.32486 35.4579 1.1695 30.3551 -0.546875 26.7517Z" fill="#531358"/>
</g>
<path id="Vector 4" d="M-1.11914 26.2429V22.5448L1.31932 23.5089C4.596 23.6933 11.256 24.0362 11.6828 23.932C12.2162 23.8018 21.4747 14.1352 21.7414 13.8423C21.9548 13.608 26.758 13.4626 29.133 13.4192C32.2725 15.8668 33.8829 22.6301 34.4671 25.7221C30.5655 23.0142 25.2086 25.1471 22.8463 26.5358C7.97174 35.0242 0.595401 29.8774 -1.11914 26.2429Z" fill="#7B3580"/>
<g id="Vector 9" filter="url(#filter2_f_213_101)">
<path d="M-0.546875 23.6716V18.6593C4.64755 17.1187 15.0593 13.66 15.1507 12.1498C15.2421 10.6396 20.5483 9.95828 23.19 9.8064C26.0857 10.0407 28.5114 13.0069 29.3624 14.4607C25.6132 13.966 20.307 20.3952 18.1226 23.6716C10.35 32.3618 1.62488 28.1957 -0.546875 23.6716Z" fill="#722C77"/>
</g>
<path id="Vector 3" d="M-1.11914 22.6099V17.565C4.07528 16.0245 14.6014 12.6186 14.6928 11.1083C14.7842 9.59815 20.0142 8.46115 22.6559 8.30927C25.5516 8.54361 28.5107 12.1607 29.3616 13.6145C25.6125 13.1198 19.8491 19.3537 17.6647 22.6302C9.89208 31.3203 1.05261 27.134 -1.11914 22.6099Z" fill="#96499B"/>
<g id="Vector 10" filter="url(#filter3_f_213_101)">
<path d="M-0.961331 19.3573C-1.72624 16.0385 1.37588 12.9154 3.02256 11.7687L6.04431 12.3126L9.20668 11.7687C15.0072 7.61351 20.7132 8.01632 23.3802 8.86816C18.5996 10.0486 16.5279 12.0385 11.9863 19.3573C7.44467 26.676 -0.00519812 23.5057 -0.961331 19.3573Z" fill="#843689"/>
</g>
<path id="Vector 2" d="M-1.11914 18.8418V11.4786L5.32921 11.6453C5.88471 11.6597 6.43996 11.6087 6.98357 11.4935L7.96565 11.2854C8.5266 11.1665 9.05352 10.9245 9.53479 10.6128C15.038 7.04815 21.2154 7.64152 23.4179 8.44026C18.7422 9.60744 16.1027 11.6053 11.6608 18.8418C7.21892 26.0784 -1.11915 22.8136 -1.11914 18.8418Z" fill="#B269B6"/>
</g>
</g>
</g>
<defs>
<filter id="filter0_f_213_101" x="-2.14161" y="20.853" width="37.6338" height="19.8296" filterUnits="userSpaceOnUse" color-interpolation-filters="sRGB">
<feFlood flood-opacity="0" result="BackgroundImageFix"/>
<feBlend mode="normal" in="SourceGraphic" in2="BackgroundImageFix" result="shape"/>
<feGaussianBlur stdDeviation="0.530524" result="effect1_foregroundBlur_213_101"/>
</filter>
<filter id="filter1_f_213_101" x="-1.0416" y="13.8681" width="36.1564" height="18.2399" filterUnits="userSpaceOnUse" color-interpolation-filters="sRGB">
<feFlood flood-opacity="0" result="BackgroundImageFix"/>
<feBlend mode="normal" in="SourceGraphic" in2="BackgroundImageFix" result="shape"/>
<feGaussianBlur stdDeviation="0.247361" result="effect1_foregroundBlur_213_101"/>
</filter>
<filter id="filter2_f_213_101" x="-1.10669" y="9.24658" width="31.0288" height="20.0578" filterUnits="userSpaceOnUse" color-interpolation-filters="sRGB">
<feFlood flood-opacity="0" result="BackgroundImageFix"/>
<feBlend mode="normal" in="SourceGraphic" in2="BackgroundImageFix" result="shape"/>
<feGaussianBlur stdDeviation="0.279908" result="effect1_foregroundBlur_213_101"/>
</filter>
<filter id="filter3_f_213_101" x="-1.93982" y="7.4552" width="26.1794" height="17.1408" filterUnits="userSpaceOnUse" color-interpolation-filters="sRGB">
<feFlood flood-opacity="0" result="BackgroundImageFix"/>
<feBlend mode="normal" in="SourceGraphic" in2="BackgroundImageFix" result="shape"/>
<feGaussianBlur stdDeviation="0.429627" result="effect1_foregroundBlur_213_101"/>
</filter>
<clipPath id="clip0_213_101">
<rect width="47" height="47" rx="23.5" fill="white"/>
</clipPath>
</defs>
</svg>
