<svg width="71" height="14" viewBox="0 0 71 14" fill="none" xmlns="http://www.w3.org/2000/svg">
<g id="Logo-Preto">
<g id="A">
<circle id="Ellipse 1" cx="12.6987" cy="11.1756" r="1.00434" fill="black"/>
<path id="Vector 11" d="M14.001 8.41185C14.2231 8.18969 15.5376 5.46855 16.3687 3.71021C16.4797 3.47548 16.8123 3.47221 16.9284 3.70444L21.1461 12.1397" stroke="black" stroke-width="1.949" stroke-linecap="round"/>
</g>
<g id="M">
<path id="M_2" d="M24.7192 12.1482V2.7885C24.7192 2.55957 25.0268 2.48501 25.1316 2.68853L27.7246 7.72197C28.0353 8.32513 28.8851 8.35898 29.2428 7.78245L32.4174 2.66584C32.4691 2.5825 32.5977 2.61914 32.5977 2.71721V12.1482" stroke="black" stroke-width="1.949" stroke-linecap="round"/>
</g>
<g id="E">
<path id="Vector 13" d="M41.7977 2.96002H35.7808" stroke="black" stroke-width="1.949" stroke-linecap="round"/>
<path id="Vector 16" d="M35.7641 8.51466L35.7808 2.96002" stroke="black" stroke-width="1.949" stroke-linecap="round"/>
<path id="Vector 14" d="M41.6107 11.3407L35.7637 11.3407" stroke="black" stroke-width="1.949" stroke-linecap="round"/>
<path id="Vector 15" d="M40.1492 7.32684H35.7808" stroke="black" stroke-width="1.949" stroke-linecap="round"/>
</g>
<g id="G">
<path id="Ellipse 6" d="M10.3394 11.2241L10.2108 11.4493L10.0189 11.6598C9.15232 12.5589 8.01616 13.151 6.78269 13.3461C5.54857 13.5413 4.28446 13.3285 3.18229 12.7399C2.08012 12.1514 1.2001 11.2192 0.675853 10.0851C0.151604 8.95091 0.0117586 7.67665 0.277551 6.45579C0.543343 5.23492 1.20025 4.13412 2.14854 3.32054C3.09683 2.50696 4.2847 2.02503 5.53178 1.94793C6.77045 1.87134 7.6206 2.19124 8.6699 2.88713C9.41798 3.38325 9.88452 4.07813 10.1943 4.94117C10.3522 5.38108 10.0276 5.84786 9.53183 5.90004C9.14306 5.94097 8.79749 5.70549 8.73454 5.34295C8.70346 5.16398 8.67297 4.99367 8.59923 4.82154C8.52428 4.64662 8.40821 4.47704 8.21493 4.28566C8.18959 4.26056 8.16143 4.23794 8.13171 4.21862C7.39223 3.73815 6.40189 3.42206 5.51374 3.47697C4.60422 3.5332 3.86933 3.974 3.20107 4.54733C2.51984 5.1318 2.04792 5.92259 1.85698 6.79964C1.66604 7.67669 1.76651 8.59209 2.14312 9.40686C2.51973 10.2216 3.15192 10.8912 3.94369 11.314C4.73547 11.7368 5.64359 11.8897 6.53016 11.7495C7.39508 11.6127 8.24166 11.3601 8.87578 10.7017L8.91666 10.6592V10.6003V8.76822C8.91666 8.37533 9.23516 8.05683 9.62805 8.05683C10.0209 8.05683 10.3394 8.37533 10.3394 8.76822V11.2241Z" fill="black" stroke="black" stroke-width="0.29235"/>
<path id="Vector 23" d="M9.45245 8.70953H8.67285" stroke="black" stroke-width="1.65665" stroke-linecap="round"/>
</g>
<g id="Group 3">
<g id="A_2">
<path id="Vector 18" d="M50.677 10.9442C50.2087 11.4125 50.2087 12.1717 50.677 12.64C51.1453 13.1083 51.9045 13.1083 52.3728 12.64L50.677 10.9442ZM52.3728 12.64C52.5002 12.5126 52.5759 12.3786 52.5926 12.3499C52.6253 12.2934 52.6539 12.2371 52.6765 12.1904C52.7225 12.0956 52.7722 11.9825 52.8222 11.8637C52.9234 11.6231 53.0498 11.3028 53.1912 10.9346C53.475 10.1958 53.8366 9.21996 54.2112 8.20959C54.9749 6.1496 55.7699 4.01084 56.1396 3.22209L53.968 2.20418C53.5434 3.11 52.7011 5.38362 51.9624 7.37591C51.5859 8.39169 51.23 9.35199 50.9524 10.0745C50.8132 10.437 50.6978 10.7287 50.6117 10.9333C50.568 11.0371 50.5375 11.105 50.5189 11.1433C50.5092 11.1632 50.5093 11.1616 50.5177 11.1471C50.522 11.1396 50.5339 11.1195 50.5527 11.0924C50.5673 11.0712 50.6093 11.0119 50.677 10.9442L52.3728 12.64Z" fill="url(#paint0_linear_213_102)"/>
<path id="Vector 22" d="M55.0195 2.78162L58.4345 9.99702C58.8217 10.8153 58.2249 11.7581 57.3196 11.7581H55.8525" stroke="url(#paint1_linear_213_102)" stroke-width="2.39829" stroke-linecap="round"/>
</g>
<g id="J">
<path id="Vector 17" d="M47.5591 5.74658C47.5591 7.50145 48.2045 11.5627 45.254 11.7633C42.3035 11.9638 41.8733 9.84129 42.0269 8.75494" stroke="url(#paint2_linear_213_102)" stroke-width="2.39829" stroke-linecap="round"/>
<circle id="Ellipse 4" cx="47.5506" cy="2.57602" r="1.37901" fill="#510A55" stroke="#500A55" stroke-width="0.394004"/>
</g>
<g id="M_3">
<path id="Vector 19" d="M61.666 11.3506V2.53354C61.666 2.31788 61.9557 2.24765 62.0545 2.43937L64.5102 7.20632C64.8 7.76895 65.5901 7.80718 65.9329 7.27517L69.279 2.08235" stroke="url(#paint3_linear_213_102)" stroke-width="2.39829" stroke-linecap="round"/>
<path id="Vector 20" d="M69.3132 2.2879V9.82537C69.3132 10.885 68.4542 11.744 67.3945 11.744V11.744" stroke="url(#paint4_linear_213_102)" stroke-width="2.39829" stroke-linecap="round"/>
<path id="Vector 21" d="M69.3132 2.2879V9.82537C69.3132 10.885 68.4542 11.744 67.3945 11.744V11.744" stroke="url(#paint5_linear_213_102)" stroke-width="2.39829" stroke-linecap="round"/>
</g>
</g>
</g>
<defs>
<linearGradient id="paint0_linear_213_102" x1="53.2894" y1="2.71313" x2="53.2894" y2="11.7921" gradientUnits="userSpaceOnUse">
<stop stop-color="#500A55"/>
<stop offset="1" stop-color="#B116BB"/>
</linearGradient>
<linearGradient id="paint1_linear_213_102" x1="57.1437" y1="2.78162" x2="57.1437" y2="11.7581" gradientUnits="userSpaceOnUse">
<stop stop-color="#500A55"/>
<stop offset="1" stop-color="#B116BB"/>
</linearGradient>
<linearGradient id="paint2_linear_213_102" x1="44.8094" y1="5.74658" x2="44.8094" y2="11.7766" gradientUnits="userSpaceOnUse">
<stop stop-color="#500A55"/>
<stop offset="1" stop-color="#B116BB"/>
</linearGradient>
<linearGradient id="paint3_linear_213_102" x1="65.4725" y1="1.6853" x2="65.4725" y2="11.3506" gradientUnits="userSpaceOnUse">
<stop stop-color="#500A55"/>
<stop offset="1" stop-color="#B116BB"/>
</linearGradient>
<linearGradient id="paint4_linear_213_102" x1="68.3538" y1="2.2879" x2="68.3538" y2="11.744" gradientUnits="userSpaceOnUse">
<stop stop-color="#500A55"/>
<stop offset="1" stop-color="#B116BB"/>
</linearGradient>
<linearGradient id="paint5_linear_213_102" x1="68.3538" y1="2.2879" x2="68.3538" y2="11.744" gradientUnits="userSpaceOnUse">
<stop stop-color="#500A55"/>
<stop offset="1" stop-color="#B116BB"/>
</linearGradient>
</defs>
</svg>
